# xmcd
#
# Track frame offsets:
#	150
#	13502
#	25939
#	36514
#	49338
#	63805
#	75808
#	86568
#	97997
#	112547
#
# Disc length: 1632 seconds
#
# Revision: 2
# Processed by: cddbd v1.5.1PL2 Copyright (c) Steve Scherf et al.
# Submitted via: audiograbber 1.83.01
#
DISCID=65065e0a
DTITLE=Benny Johnson - Hammond Rhythmen 30 Evergreens zum Tanzen
DYEAR=1900
DGENRE=
TTITLE0=Swing Medley
TTITLE1=Swing Medley
TTITLE2=Swing Medley
TTITLE3=Shuffle Medley
TTITLE4=Fox Medley
TTITLE5=Fox Medley
TTITLE6=Swing Medley
TTITLE7=Bossa Nova Medley
TTITLE8=Cha Cha Medley
TTITLE9=Swing Medley
EXTD=Schallplatte
EXTT0=
EXTT1=
EXTT2=
EXTT3=
EXTT4=
EXTT5=
EXTT6=
EXTT7=
EXTT8=
EXTT9=
PLAYORDER=
